<svg width="1920" height="1727" viewBox="0 0 1920 1727" fill="none" xmlns="http://www.w3.org/2000/svg">
<path d="M85.9414 1040.43C950.386 321.739 1644.44 1433.79 840.402 1480.51C36.3631 1527.22 414.591 742.268 997.244 648.249C1105.39 630.799 1272.71 510.079 1290.8 440.481C1299.25 407.963 1254.93 383.189 1193.51 391.539C1107.8 414.48 1098.27 480.866 1177.57 494.667C1267.45 510.309 1437.95 438.853 1452.67 409.018C1467.72 378.532 1481.45 296.846 1497.96 258.695C1535.97 170.856 1566.72 157.314 1566.72 157.314" stroke="black" stroke-dasharray="11 11"/>
<path d="M1709.55 63.834L1605.89 110.202M1605.89 110.202L1593.51 147.576L1622.46 132.891M1578.69 71.1418L1709.64 63.5724L1653.57 164.993L1578.69 71.1418Z" stroke="black" stroke-linecap="round" stroke-linejoin="round"/>
<path d="M64.0652 1011.9C66.5446 1011.9 68.668 1011.02 70.4352 1009.26C72.1994 1007.5 73.0814 1005.39 73.0814 1002.92C73.0814 1000.45 72.1994 998.334 70.4352 996.574C68.668 994.817 66.5446 993.938 64.0652 993.938C61.5857 993.938 59.4638 994.817 57.6997 996.574C55.9325 998.334 55.0489 1000.45 55.0489 1002.92C55.0489 1005.39 55.9325 1007.5 57.6997 1009.26C59.4638 1011.02 61.5857 1011.9 64.0652 1011.9ZM64.0652 1044.9C73.2317 1036.52 80.0315 1028.9 84.4645 1022.05C88.8975 1015.21 91.114 1009.13 91.114 1003.82C91.114 995.659 88.5023 988.98 83.2789 983.778C78.0584 978.579 71.6539 975.979 64.0652 975.979C56.4764 975.979 50.0704 978.579 44.8469 983.778C39.6265 988.98 37.0163 995.659 37.0163 1003.82C37.0163 1009.13 39.2328 1015.21 43.6658 1022.05C48.0988 1028.9 54.8986 1036.52 64.0652 1044.9ZM64.0652 1056.79C51.9683 1046.54 42.934 1037.02 36.9622 1028.23C30.9874 1019.44 28 1011.3 28 1003.82C28 992.591 31.6261 983.649 38.8782 976.99C46.1273 970.33 54.5229 967 64.0652 967C73.6074 967 82.0031 970.33 89.2522 976.99C96.5043 983.649 100.13 992.591 100.13 1003.82C100.13 1011.3 97.1444 1019.44 91.1726 1028.23C85.1978 1037.02 76.162 1046.54 64.0652 1056.79Z" fill="black"/>
</svg>
