<svg
      width="61"
      height="80"
      viewBox="0 0 61 80"
      fill="none"
      xmlns="http://www.w3.org/2000/svg"
    >
      <path
        fill-rule="evenodd"
        clip-rule="evenodd"
        d="M0.113144 50.549C0.438144 50.372 0.647144 51.111 0.915145 51.304C2.44514 53.564 6.50214 54.506 9.36214 53.192C11.4351 52.239 13.3721 50.271 13.5621 47.482C13.7721 44.402 13.5621 40.975 13.5621 37.761C13.5621 34.413 13.6241 31.125 13.5151 28.134C12.5011 27.883 11.3731 27.992 10.2581 27.992C6.97714 27.992 3.33214 28.07 0.159144 27.898C-0.0988555 25.925 0.0761444 23.831 0.0651444 21.763C1.17714 20.682 2.52914 19.875 3.79314 18.979C7.52614 16.33 11.3211 13.563 15.0711 10.862C19.9801 7.14999 25.0851 3.63499 30.0791 0.00799014C30.6351 -0.0920099 31.6671 0.77099 32.2971 1.23499C36.6691 4.45499 41.1751 7.75499 45.5111 10.909C48.0721 12.772 50.6841 14.508 53.1091 16.383C53.7361 16.868 54.3071 17.403 54.9501 17.846C56.2191 18.723 57.4491 19.651 58.7251 20.583C59.3391 21.032 60.0571 21.412 60.5181 22.046C60.6911 34.372 60.5551 45.892 60.5181 58.289C60.1281 58.974 59.3891 59.368 58.7721 59.799C54.3701 62.873 49.9651 66.074 45.5581 69.237C41.1561 72.396 36.7111 75.484 32.2501 78.628C31.6281 79.066 31.0401 79.651 30.2681 79.855C29.4801 79.628 28.9231 79 28.2861 78.534C23.9211 75.345 19.4561 72.083 15.0721 68.86C11.3051 66.09 7.52414 63.338 3.79414 60.507C2.55514 59.566 1.17214 58.825 0.0661445 57.722C0.0171445 55.455 -0.0748555 52.739 0.113144 50.549ZM53.5331 28.606C53.5331 27.62 53.7561 25.663 53.4851 24.877C53.3661 24.53 52.6531 24.08 52.1651 23.697C51.7101 23.342 51.1031 22.951 50.7021 22.659C47.7121 20.481 44.8761 18.457 41.9721 16.336C38.5711 13.852 35.2121 11.483 31.7791 8.97399C31.2211 8.56699 30.4461 7.94599 29.9381 8.17199C29.1371 8.52699 28.4021 9.20099 27.6261 9.77599C26.8641 10.341 26.0561 10.896 25.3141 11.38C23.7251 12.417 22.2791 13.567 20.7361 14.636C18.3701 16.277 16.1331 17.931 13.8931 19.544C13.5231 19.811 13.0981 20.068 12.7131 20.346C12.3521 20.608 11.8621 20.9 11.7701 21.385C12.9091 21.672 14.0911 21.475 15.2621 21.527C16.4601 21.579 17.6801 21.473 18.8951 21.48C26.1431 21.518 33.6591 21.475 40.8861 21.527C43.4031 23.256 45.9611 25.163 48.3901 26.954C48.7151 27.194 49.1761 27.455 49.2401 27.898C44.2931 28.207 38.5331 27.728 33.5721 28.086C33.1851 37.775 33.6411 48.294 33.3371 58.336C32.4551 58.58 31.3001 58.478 30.1751 58.478C29.0421 58.478 27.8471 58.59 26.9661 58.336C26.7171 48.447 27.1221 38.096 26.8241 28.086C25.8651 27.947 24.7061 27.944 23.5681 27.945C22.4141 27.945 21.2081 27.833 20.2641 28.086C20.0831 32.254 20.0521 37.264 20.1221 41.819C20.1931 46.455 20.5161 51.655 19.0371 54.796C18.0001 56.257 16.7951 57.631 15.1671 58.43C14.6061 58.705 13.9461 58.756 13.3741 59.138C13.3301 59.559 13.9141 59.762 14.2241 59.988C18.6281 63.469 23.4331 66.604 28.0501 69.945C28.5741 70.324 29.6041 71.207 30.1741 71.22C30.6031 71.229 31.3391 70.673 31.7781 70.37C33.2851 69.332 34.8621 68.241 36.1671 67.255C40.0171 64.345 43.9831 61.766 47.7761 58.95C48.7251 58.244 49.6401 57.496 50.6071 56.826C51.5851 56.148 52.6301 55.548 53.4851 54.702C53.5651 46.256 53.5341 37.202 53.5331 28.606Z"
        fill="black"
      />
      <path
        fill-rule="evenodd"
        clip-rule="evenodd"
        d="M5.91697 42.338C7.07197 42.232 8.29197 42.659 9.03097 43.187C10.094 43.947 11.097 45.392 11.013 47.246C10.976 48.045 10.809 48.462 10.588 48.945C9.82797 50.606 7.99097 51.904 5.86797 51.73C3.91797 51.57 2.20697 50.12 1.71597 48.474C1.45297 47.594 1.47097 46.53 1.66797 45.784C2.14697 43.984 3.60097 42.551 5.91697 42.338Z"
        fill="black"
      />
</svg>
